D:\school\WTK\thesis\model\3dpredictsim\Results\batch_windlass\Pog_s1_tmt_bCst_d05_k1000_WL30_ig24_act_TTC_GRF.mot
nRows=22
nColumns=19

name D:\school\WTK\thesis\model\3dpredictsim\Results\batch_windlass\Pog_s1_tmt_bCst_d05_k1000_WL30_ig24_act_TTC_GRF.mot
datacolumns 19
datarows 22
range 0.0000000000 0.2525244256
endheader
time 	ground_force_vx	ground_force_vy	ground_force_vz	ground_force_px	ground_force_py	ground_force_pz	1_ground_force_vx	1_ground_force_vy	1_ground_force_vz	1_ground_force_px	1_ground_force_py	1_ground_force_pz	ground_torque_x	ground_torque_y	ground_torque_z	1_ground_torque_x	1_ground_torque_y	1_ground_torque_z
        0.0000000000	      -57.8886140922	       40.6115119790	        8.9888707663	        0.1640572783	        0.0000000000	        0.0591081098	      100.9388159216	      410.3291744085	       -2.3090386409	       -0.3605200402	        0.0000000000	       -0.0379575012	        0.0000000000	        0.0000000000	        0.0000000000	        0.0000000000	        0.0000000000	        0.0000000000	
        0.0120249726	     -120.9842046803	      103.5124524203	       24.1152219055	        0.1774698430	        0.0000000000	        0.0576684211	       68.1101912119	      310.0046948211	       -6.8045082179	       -0.3518720391	        0.0000000000	       -0.0343588464	        0.0000000000	        0.0000000000	        0.0000000000	        0.0000000000	        0.0000000000	        0.0000000000	
        0.0240499453	     -123.7038327009	      253.0923934794	       33.4977947863	        0.1906109576	        0.0000000000	        0.0577316490	       41.4107519377	      222.2589567287	      -16.7499803415	       -0.3408723443	        0.0000000000	       -0.0294999504	        0.0000000000	        0.0000000000	        0.0000000000	        0.0000000000	        0.0000000000	        0.0000000000	
        0.0360749179	      -95.2574857680	      579.0309831036	       -8.6442810153	        0.2049092291	        0.0000000000	        0.0595850567	       31.9849516670	      181.2607941936	      -16.3984344040	       -0.3387101783	        0.0000000000	       -0.0283052751	        0.0000000000	        0.0000000000	        0.0000000000	        0.0000000000	        0.0000000000	        0.0000000000	
        0.0480998906	     -118.9896094617	      807.1205163102	      -23.4920501808	        0.2127096471	        0.0000000000	        0.0607806251	       24.9416760516	      134.9078559793	      -14.3283463188	       -0.3385312827	        0.0000000000	       -0.0282823150	        0.0000000000	        0.0000000000	        0.0000000000	        0.0000000000	        0.0000000000	        0.0000000000	
        0.0601248632	     -146.1926120405	      897.7088543378	      -27.9831177122	        0.2205543908	        0.0000000000	        0.0610046506	        5.6347908089	       78.4861222163	      -12.4659288609	       -0.3393203747	        0.0000000000	       -0.0284927723	        0.0000000000	        0.0000000000	        0.0000000000	        0.0000000000	        0.0000000000	        0.0000000000	
        0.0721498359	     -160.5654568184	      927.9667324803	      -24.4858035343	        0.2299408285	        0.0000000000	        0.0603601782	       -7.2724939850	       14.0509090107	       -1.7229519120	       -0.3429507801	        0.0000000000	       -0.0277310643	        0.0000000000	        0.0000000000	        0.0000000000	        0.0000000000	        0.0000000000	        0.0000000000	
        0.0841748085	     -145.4712915971	      886.3373866640	      -21.6902051748	        0.2374926599	        0.0000000000	        0.0595323044	        0.0063888467	       -0.0057477491	       -0.0003608247	        0.0000000000	        0.0000000000	        0.0000000000	        0.0000000000	        0.0000000000	        0.0000000000	        0.0000000000	        0.0000000000	        0.0000000000	
        0.0961997812	     -122.8549929293	      808.3204812708	      -18.9847358646	        0.2420576822	        0.0000000000	        0.0589411771	        0.0001444035	       -0.0001173096	       -0.0000065103	        0.0000000000	        0.0000000000	        0.0000000000	        0.0000000000	        0.0000000000	        0.0000000000	        0.0000000000	        0.0000000000	        0.0000000000	
        0.1082247538	     -104.4706382804	      746.3957719327	      -17.5630727012	        0.2460470349	        0.0000000000	        0.0585767888	        0.0000208705	       -0.0000153156	       -0.0000007884	        0.0000000000	        0.0000000000	        0.0000000000	        0.0000000000	        0.0000000000	        0.0000000000	        0.0000000000	        0.0000000000	        0.0000000000	
        0.1202497265	      -91.2146912107	      705.9580804835	      -17.2906181323	        0.2495552069	        0.0000000000	        0.0583251640	        0.0000679580	       -0.0000464919	       -0.0000018851	        0.0000000000	        0.0000000000	        0.0000000000	        0.0000000000	        0.0000000000	        0.0000000000	        0.0000000000	        0.0000000000	        0.0000000000	
        0.1322746991	      -79.7967207306	      681.0249638463	      -19.1108604602	        0.2526551895	        0.0000000000	        0.0581366261	        0.0005187228	       -0.0003265544	       -0.0000164314	        0.0000000000	        0.0000000000	        0.0000000000	        0.0000000000	        0.0000000000	        0.0000000000	        0.0000000000	        0.0000000000	        0.0000000000	
        0.1442996718	      -68.0541859439	      658.4877061377	      -19.8511772996	        0.2556991621	        0.0000000000	        0.0580248728	       -0.0041083197	        0.0023696857	        0.0001806206	        0.0000000000	        0.0000000000	        0.0000000000	        0.0000000000	        0.0000000000	        0.0000000000	        0.0000000000	        0.0000000000	        0.0000000000	
        0.1563246444	      -57.2751548603	      637.1541146443	      -19.9328099788	        0.2589169509	        0.0000000000	        0.0579506166	       -0.0042155928	        0.0022596378	        0.0002167615	        0.0000000000	        0.0000000000	        0.0000000000	        0.0000000000	        0.0000000000	        0.0000000000	        0.0000000000	        0.0000000000	        0.0000000000	
        0.1683496170	      -47.7359496980	      619.1049545990	      -20.1628376256	        0.2626260471	        0.0000000000	        0.0578572112	       -0.0024025357	        0.0012134750	        0.0001334177	        0.0000000000	        0.0000000000	        0.0000000000	        0.0000000000	        0.0000000000	        0.0000000000	        0.0000000000	        0.0000000000	        0.0000000000	
        0.1803745897	      -39.9673656459	      605.2337463773	      -20.7626000876	        0.2671516479	        0.0000000000	        0.0576771484	       -0.0016986563	        0.0008175327	        0.0000974322	        0.0000000000	        0.0000000000	        0.0000000000	        0.0000000000	        0.0000000000	        0.0000000000	        0.0000000000	        0.0000000000	        0.0000000000	
        0.1923995623	      -34.1266539300	      595.0437104808	      -21.1236713812	        0.2722784407	        0.0000000000	        0.0573997770	       -0.0016277726	        0.0007526244	        0.0000943030	        0.0000000000	        0.0000000000	        0.0000000000	        0.0000000000	        0.0000000000	        0.0000000000	        0.0000000000	        0.0000000000	        0.0000000000	
        0.2044245350	      -28.8994801103	      588.3132548764	      -21.1070817293	        0.2778418195	        0.0000000000	        0.0570323236	       -0.0021054344	        0.0009403826	        0.0001208855	        0.0000000000	        0.0000000000	        0.0000000000	        0.0000000000	        0.0000000000	        0.0000000000	        0.0000000000	        0.0000000000	        0.0000000000	
        0.2164495076	      -25.6156716149	      584.5154057833	      -21.0946332360	        0.2835485176	        0.0000000000	        0.0565890762	       -0.0035369496	        0.0015320841	        0.0001970799	        0.0000000000	        0.0000000000	        0.0000000000	        0.0000000000	        0.0000000000	        0.0000000000	        0.0000000000	        0.0000000000	        0.0000000000	
        0.2284744803	      -23.0173063548	      582.4784639866	      -21.0896287912	        0.2890405847	        0.0000000000	        0.0561224926	       -0.0073545598	        0.0031000459	        0.0003919359	        0.0000000000	        0.0000000000	        0.0000000000	        0.0000000000	        0.0000000000	        0.0000000000	        0.0000000000	        0.0000000000	        0.0000000000	
        0.2404994529	      -20.2743780746	      581.1923197384	      -21.2311752722	        0.2943965896	        0.0000000000	        0.0556345182	       -0.0176199904	        0.0072500277	        0.0008900916	        0.0000000000	        0.0000000000	        0.0000000000	        0.0000000000	        0.0000000000	        0.0000000000	        0.0000000000	        0.0000000000	        0.0000000000	
        0.2525244256	      -17.6247480762	      579.7355246047	      -21.3974058621	        0.2995892606	        0.0000000000	        0.0551328596	       -0.0446949236	        0.0180066426	        0.0021322045	        0.0000000000	        0.0000000000	        0.0000000000	        0.0000000000	        0.0000000000	        0.0000000000	        0.0000000000	        0.0000000000	        0.0000000000	
